# xmcd
#
# Track frame offsets:
#      150
#      19662
#      35680
#      44810
#      56675
#      66505
#      80927
#      98215
#      111477
#      120262
#      137795
#      149102
# 
# Disc length: 2508 seconds
#
# Revision: 7
# Processed by: cddbd v1.5.1PL0 Copyright (c) Steve Scherf et al.
#
# Submitted via: FreeRIP 1.21
#
DISCID=c009ca0c
DTITLE=Ricky Skaggs - Ancient Tones
DYEAR=1999
DGENRE=Country
TTITLE0=Walls Of Time
TTITLE1=Lonesome Night
TTITLE2=How Mountain Girls Can Love
TTITLE3=Mighty Dark To Travel
TTITLE4=Carolina Mountain Home
TTITLE5=Connemara
TTITLE6=Coal Minin' Man
TTITLE7=I Believed In You Darlin'
TTITLE8=Pig In A Pen
TTITLE9=Give Us Rain
TTITLE10=Boston Boy
TTITLE11=Little Bessie
EXTD=\n\n YEAR:      ID3G:   2
EXTT0=
EXTT1=
EXTT2=
EXTT3=
EXTT4=
EXTT5=
EXTT6=
EXTT7=
EXTT8=
EXTT9=
EXTT10=
EXTT11=
PLAYORDER=
